# xmcd CD database file
#
# Track frame offsets:
#	182
#	12702
#	23032
#	40295
#	51160
#	68550
#	85160
#	100457
#	109805
#	126982
#	140252
#	152957
#
# Disc length: 2254 seconds
#
# Revision: 2
# Processed by: cddbd v1.4b41PL1 Copyright (c) Steve Scherf et al.
# Submitted via: Feurio! 1.50.2ß - http://www.feurio.com
#
DISCID=a308cc0c
DTITLE=Ralf Paulsen - Die Western von gestern
DYEAR=1900
DGENRE=
TTITLE0=Die Western von gestern
TTITLE1=Bonanza
TTITLE2=Little Joe Goodbye
TTITLE3=Geisterreiter
TTITLE4=Das Duell
TTITLE5=High noon - 12 Uhr mittags (Sag, warum willst du von mir gehn)
TTITLE6=Es hängt ein Pferdehalfter an der Wand
TTITLE7=Tränen in deinen Augen
TTITLE8=Der alte Leierkastenmann
TTITLE9=In Berlin da hab' ick früher mal gewohnt
TTITLE10=Freie Fahrt für freie Europäer
TTITLE11=Neu sind die Namen
EXTD=
EXTT0=
EXTT1=
EXTT2=
EXTT3=
EXTT4=
EXTT5=
EXTT6=
EXTT7=
EXTT8=
EXTT9=
EXTT10=
EXTT11=
PLAYORDER=
